<svg width="62" height="91" viewBox="0 0 62 91" fill="none" xmlns="http://www.w3.org/2000/svg">
<path fill-rule="evenodd" clip-rule="evenodd" d="M32.5 0.5L32 14C32 14.0635 31.9968 14.1238 31.9936 14.1831C31.9718 14.5907 31.9524 14.9524 33 16C33.8 16.8 39.6074 20.9778 45.4149 25.1556C48.3186 27.2445 51.2222 29.3333 53.5 31C55.5 32.4634 59.5 35.5 58 41C56.1667 46.6667 50.9 62 48.5 64C45.5 66.5 38.0418 67.2218 41.5 58C44.5 50 43.8333 43 42 38.5C39.8175 33.1429 30 23.5 21.5 36C19.8001 38.5 17 46.3 21 55.5L25.4999 65C22.9999 57.3333 21 42.5 25.5 37C27.5001 34 36.2999 31.2 39.4999 44C39.8332 45.5 39.9999 51.1 37.9999 59.5C35.9999 67.9 40.5 70.3333 43 70.5C45.4999 71 51.2998 70.6 54.4999 65C56.9481 60.7158 58.3818 54.5002 59.5173 49.577C59.8661 48.0649 60.1867 46.6748 60.5 45.5C61.5 42.3333 63.5 36 58.5 31.5C53.0023 27.0018 40.1103 18.4069 36.5043 16.0029L36.5 16C33.8053 14.2035 33.4639 10.3338 33.0431 5.56536C32.9017 3.96349 32.7515 2.2602 32.5 0.5ZM17.5 85L2.5 47C2.39237 46.6771 2.23842 46.2616 2.06306 45.7883C1.42375 44.0627 0.5 41.5695 0.5 40C0.5 37.75 0.78125 37.0938 0.921875 36.7656C0.96875 36.6562 1 36.5833 1 36.5C1.5 35.5 2.18707 34.4825 4.5 32.5C6.17842 31.0614 8.50842 29.3544 10.8283 27.6549C13.3461 25.8104 15.8519 23.9746 17.5 22.5L28 14L29 1L30 12V13V14.5L29.5 15.5L27.5 17.5L6 36C5 37 4.05026 39.9198 7 46.5C11.8583 57.3378 18.1133 73.3897 22.0068 83.3816C23.3225 86.758 24.3686 89.4425 25 91L17.5 85Z" fill="#EC904E"/>
</svg>
