<svg width="62" height="91" viewBox="0 0 62 91" fill="none" xmlns="http://www.w3.org/2000/svg">
<path fill-rule="evenodd" clip-rule="evenodd" d="M32 0L31.5 13.5C31.5 13.5635 31.4968 13.6238 31.4936 13.6831C31.4718 14.0907 31.4524 14.4524 32.5 15.5C33.3 16.3 39.1074 20.4778 44.9149 24.6556C47.8186 26.7445 50.7222 28.8333 53 30.5C55 31.9634 59 35 57.5 40.5C55.6667 46.1667 50.4 61.5 48 63.5C45 66 37.5418 66.7218 41 57.5C44 49.5 43.3333 42.5 41.5 38C39.3175 32.6429 29.5 23 21 35.5C19.3001 38 16.5 45.8 20.5 55L24.9999 64.5C22.4999 56.8333 20.5 42 25 36.5C27.0001 33.5 35.7999 30.7 38.9999 43.5C39.3332 45 39.4999 50.6 37.4999 59C35.4999 67.4 40 69.8333 42.5 70C44.9999 70.5 50.7998 70.1 53.9999 64.5C56.4481 60.2158 57.8818 54.0002 59.0173 49.077C59.3661 47.5649 59.6867 46.1748 60 45C61 41.8333 63 35.5 58 31C52.5023 26.5018 39.6103 17.9069 36.0043 15.5029L36 15.5C33.3053 13.7035 32.9639 9.83382 32.5431 5.06536C32.4017 3.46349 32.2515 1.7602 32 0ZM17 84.5L2 46.5C1.89237 46.1771 1.73842 45.7616 1.56306 45.2883C0.923748 43.5627 0 41.0695 0 39.5C0 37.25 0.28125 36.5938 0.421875 36.2656C0.46875 36.1562 0.5 36.0833 0.5 36C1 35 1.68707 33.9825 4 32C5.67842 30.5614 8.00842 28.8544 10.3283 27.1549C12.8461 25.3104 15.3519 23.4746 17 22L27.5 13.5L28.5 0.5L29.5 11.5V12.5V14L29 15L27 17L5.5 35.5C4.5 36.5 3.55026 39.4198 6.5 46C11.3583 56.8378 17.6133 72.8897 21.5068 82.8816C22.8225 86.258 23.8686 88.9425 24.5 90.5L17 84.5Z" fill="#E8E8E0"/>
</svg>
